<?xml version="1.0" encoding="UTF-8"?>
<!DOCTYPE svg PUBLIC "-//W3C//DTD SVG 1.1//EN" "http://www.w3.org/Graphics/SVG/1.1/DTD/svg11.dtd">
<!-- Creator: CorelDRAW 2020 (64-Bit) -->
<svg xmlns="http://www.w3.org/2000/svg" xml:space="preserve" width="642px" height="642px" version="1.1" style="shape-rendering:geometricPrecision; text-rendering:geometricPrecision; image-rendering:optimizeQuality; fill-rule:evenodd; clip-rule:evenodd"
viewBox="0 0 529.72 529.72"
 xmlns:xlink="http://www.w3.org/1999/xlink"
 xmlns:xodm="http://www.corel.com/coreldraw/odm/2003">
 <defs>
  <style type="text/css">
   <![CDATA[
    .str0 {stroke:#2B2B29;stroke-width:1.95;stroke-miterlimit:22.9256}
    .str1 {stroke:#283CBD;stroke-width:0.74;stroke-miterlimit:22.9256}
    .fil1 {fill:none}
    .fil3 {fill:#71BA3C}
    .fil0 {fill:white}
    .fil4 {fill:#283CBD;fill-rule:nonzero}
    .fil2 {fill:url(#id0)}
   ]]>
  </style>
  <linearGradient id="id0" gradientUnits="userSpaceOnUse" x1="0.97" y1="264.86" x2="528.75" y2="264.86">
   <stop offset="0" style="stop-opacity:1; stop-color:#71BA3C"/>
   <stop offset="1" style="stop-opacity:1; stop-color:#283CBD"/>
  </linearGradient>
 </defs>
 <g id="Capa_x0020_1">
  <metadata id="CorelCorpID_0Corel-Layer"/>
  <g id="_2166939852000">
   <g>
    <path class="fil0 str0" d="M264.86 0.97c145.74,0 263.89,118.15 263.89,263.89 0,145.74 -118.15,263.89 -263.89,263.89 -145.74,0 -263.89,-118.15 -263.89,-263.89 0,-145.74 118.15,-263.89 263.89,-263.89z"/>
    <path class="fil1" d="M264.86 0.97c145.74,0 263.89,118.15 263.89,263.89 0,145.74 -118.15,263.89 -263.89,263.89 -145.74,0 -263.89,-118.15 -263.89,-263.89 0,-145.74 118.15,-263.89 263.89,-263.89zm0 16.58c136.58,0 247.3,110.73 247.3,247.31 0,136.58 -110.72,247.3 -247.3,247.3 -136.58,0 -247.31,-110.72 -247.31,-247.3 0,-136.58 110.73,-247.31 247.31,-247.31z"/>
    <path class="fil1" d="M264.86 17.55c136.58,0 247.3,110.73 247.3,247.31 0,136.58 -110.72,247.3 -247.3,247.3 -136.58,0 -247.31,-110.72 -247.31,-247.3 0,-136.58 110.73,-247.31 247.31,-247.31z"/>
    <path class="fil2" d="M17.55 264.86c0,-136.58 110.73,-247.31 247.31,-247.31 136.58,0 247.3,110.73 247.3,247.31 0,136.58 -110.72,247.3 -247.3,247.3 -136.58,0 -247.31,-110.72 -247.31,-247.3zm511.2 0c0,-145.74 -118.15,-263.89 -263.89,-263.89 -145.74,0 -263.89,118.15 -263.89,263.89 0,145.74 118.15,263.89 263.89,263.89 145.74,0 263.89,-118.15 263.89,-263.89z"/>
   </g>
   <g>
    <path class="fil3" d="M418.74 252.67c-0.64,-2.5 -11.12,-20.28 -11.75,-23.12 -1.43,0.3 -7.78,4.37 -9.53,5.48l-9.69 5.89c1.27,2.2 9.05,11.9 11.28,14.84 3.33,4.59 8.1,10.33 11.11,14.77 -3.49,5.33 -7.46,9.32 -10.79,13.57l-12.07 12.71c-0.96,0.82 -1.27,0.9 -2.23,1.83 -0.79,0.78 -1.27,1.34 -2.06,2.01l-9.21 7.42c-5.08,3.84 -9.37,6.53 -14.93,9.85 -6.03,3.57 -10.32,5.44 -16.51,7.82 -3.02,1.16 -3.66,0.64 -3.66,4.89 4.29,-1.01 8.74,-1.87 12.71,-3.21 18.9,-6.34 36.2,-16.66 50.97,-29.79l4.29 -3.73c1.59,-1.15 2.86,-2.61 4.13,-3.98 2.06,-2.06 6.19,-6.64 8.26,-8.02l2.54 5.96c0.95,1.87 2.06,4.14 2.7,5.89l5.4 12.12c2.7,-0.63 16.19,-8.98 19.37,-9.77 0,-1.67 -1.27,-2.9 -2.22,-4.21l-18.42 -27.85c0.63,-2.05 4.76,-7.61 6.19,-9.66 11.27,-16.7 28.27,-32.62 45.1,-43.43 7.3,-4.74 9.37,-5 16.04,-8.2l0 -3.66c-16.52,3.84 -31.76,12.83 -43.67,21.7l-6.67 5.41c-0.95,0.82 -1.43,0.97 -2.22,1.82l-12.71 11.79c-1.43,1.52 -2.22,2.76 -3.81,4.25 -1.27,1.26 -6.67,8.24 -7.94,8.61z"/>
    <path class="fil4 str1" d="M33.96 294.86l9.7 0 0 -68.88 -9.7 0 0 68.88zm73.87 -50.85c-4.21,0 -9.8,0.69 -16.66,3.72 -3.13,-2.54 -7.54,-3.72 -13.02,-3.72 -5.2,0 -12.74,1.27 -20.19,3.82l0 47.03 9.41 0 0 -41.25c3.62,-0.88 7.44,-1.57 10.38,-1.57 8.04,0 11.17,5.29 11.17,16.95l0 25.87 9.41 0 0 -26.26c0,-5.88 -0.79,-10.58 -2.35,-14.3 4.31,-1.67 8.22,-2.26 11.46,-2.26 8.03,0 11.17,5.29 11.17,16.95l0 25.87 9.4 0 0 -26.26c0,-17.05 -6.46,-24.59 -20.18,-24.59zm55.74 0c-7.05,0 -13.61,0.78 -21.65,2.25l0 69.17 9.41 0 0 -21.46c4.01,1.38 8.42,2.26 13.13,2.26 14.79,0 20.67,-9.31 20.67,-27.04 0,-17.05 -6.17,-25.18 -21.56,-25.18zm-0.68 44.67c-3.53,0 -7.55,-0.88 -11.56,-2.54l0 -33.9c3.72,-0.49 7.74,-0.88 11.75,-0.88 9.12,0 12.35,5.88 12.35,18.12 0,11.76 -2.06,19.2 -12.54,19.2zm53.69 -44.67c-5.29,0 -11.86,1.27 -20.09,2.94l0 47.91 9.41 0 0 -41.84c3.82,-0.68 8.03,-1.27 12.24,-1.27 1.77,0 3.53,0.1 5.59,0.49l0 -7.25c-1.67,-0.69 -4.61,-0.98 -7.15,-0.98zm14.98 1.47l0 49.38 9.41 0 0 -49.38 -9.41 0zm73.09 -1.47c-4.21,0 -9.8,0.69 -16.66,3.72 -3.13,-2.54 -7.54,-3.72 -13.02,-3.72 -5.2,0 -12.74,1.27 -20.19,3.82l0 47.03 9.41 0 0 -41.25c3.62,-0.88 7.44,-1.57 10.38,-1.57 8.04,0 11.17,5.29 11.17,16.95l0 25.87 9.41 0 0 -26.26c0,-5.88 -0.79,-10.58 -2.35,-14.3 4.31,-1.67 8.23,-2.26 11.46,-2.26 8.03,0 11.17,5.29 11.17,16.95l0 25.87 9.4 0 0 -26.26c0,-17.05 -6.46,-24.59 -20.18,-24.59zm54.67 52.22c15.38,0 23.12,-8.92 23.12,-26.06 0,-17.15 -7.74,-26.16 -23.12,-26.16 -15.29,0 -23.12,9.01 -23.12,26.16 0,17.14 7.83,26.06 23.12,26.06zm0 -7.55c-9.02,0 -13.52,-6.07 -13.52,-18.51 0,-12.44 4.5,-18.52 13.52,-18.52 9.11,0 13.52,6.08 13.52,18.52 0,12.44 -4.41,18.51 -13.52,18.51z"/>
    <path class="fil4 str1" d="M391.2 319.61c0.65,-0.19 1.02,-0.05 1.11,0.43 0.05,0.51 -0.19,0.89 -0.73,1.14 -0.28,0.15 -0.6,0.22 -0.97,0.22 -0.6,-0.06 -0.74,-0.37 -0.43,-0.94 0.26,-0.42 0.6,-0.7 1.02,-0.85zm16.68 -7.85c0.23,-0.05 0.43,-0.02 0.61,0.11 0.19,0.13 0.31,0.3 0.37,0.53 0.05,0.23 0.01,0.42 -0.13,0.59 -0.94,1.45 -1.75,2.66 -2.44,3.65 -0.7,0.99 -1.48,2.05 -2.36,3.16 -0.87,1.12 -1.67,2.01 -2.4,2.68 -0.72,0.66 -1.47,1.22 -2.27,1.65 -0.79,0.44 -1.54,0.66 -2.24,0.66 -0.26,0 -0.51,-0.03 -0.77,-0.08 -1.02,-0.23 -1.8,-0.82 -2.33,-1.79 -0.57,-1.27 -0.82,-2.66 -0.74,-4.18 0.07,-1.51 0.37,-3 0.91,-4.47 0.56,-1.56 1.28,-2.76 2.14,-3.61 0.86,-0.85 1.68,-1.15 2.44,-0.89 0.17,0.06 0.33,0.13 0.47,0.23 0.14,0.1 0.31,0.3 0.51,0.6 0.19,0.29 0.29,0.68 0.29,1.16 0,0.48 -0.08,1.11 -0.25,1.87 -0.06,0.23 -0.18,0.4 -0.36,0.51 -0.19,0.11 -0.39,0.14 -0.62,0.08 -0.22,-0.05 -0.39,-0.18 -0.51,-0.38 -0.11,-0.19 -0.14,-0.39 -0.08,-0.59 0.28,-1.08 0.3,-1.73 0.04,-1.95 -0.11,0 -0.29,0.08 -0.53,0.25 -0.24,0.17 -0.56,0.55 -0.95,1.13 -0.4,0.58 -0.75,1.3 -1.06,2.18 -0.51,1.33 -0.79,2.68 -0.83,4.05 -0.04,1.38 0.15,2.44 0.57,3.21 0.28,0.54 0.69,0.86 1.23,0.97 0.48,0.12 1.03,0.05 1.64,-0.21 0.6,-0.25 1.25,-0.71 1.95,-1.38 0.69,-0.66 1.32,-1.31 1.89,-1.95 0.56,-0.64 1.22,-1.48 1.97,-2.55 0.75,-1.06 1.32,-1.88 1.72,-2.46 0.39,-0.58 0.93,-1.39 1.61,-2.44 0.11,-0.17 0.28,-0.28 0.51,-0.34zm13.41 0.34c0.23,-0.03 0.43,0.03 0.61,0.17 0.19,0.14 0.29,0.33 0.32,0.55 0.03,0.23 -0.03,0.43 -0.17,0.6 -1.16,1.5 -2.54,2.67 -4.16,3.52 -1.61,0.85 -3.12,1.12 -4.54,0.81 -0.39,0.96 -0.94,1.72 -1.65,2.27 -0.71,0.55 -1.44,0.83 -2.21,0.83l-0.04 0c-0.76,-0.03 -1.44,-0.3 -2.02,-0.79 -0.58,-0.49 -0.98,-1.18 -1.21,-2.06 -0.36,-1.38 -0.3,-2.71 0.2,-3.97 0.49,-1.26 1.2,-2.18 2.14,-2.78 0.2,-0.14 0.42,-0.17 0.68,-0.08 0.25,-0.62 0.61,-1.1 1.08,-1.44 0.47,-0.34 0.95,-0.47 1.46,-0.39 0.29,0.06 0.55,0.18 0.79,0.37 0.24,0.18 0.48,0.47 0.72,0.87 0.24,0.39 0.42,1 0.53,1.82 0.11,0.82 0.14,1.8 0.09,2.93 -0.03,0.28 -0.08,0.56 -0.13,0.85 1.07,0.22 2.27,-0.05 3.58,-0.81 1.32,-0.76 2.44,-1.75 3.38,-2.97 0.14,-0.17 0.32,-0.27 0.55,-0.3zm-11.8 7.09c0.4,0 0.82,-0.18 1.25,-0.55 0.44,-0.37 0.8,-0.86 1.09,-1.49 -1.84,-1.02 -2.81,-2.4 -2.89,-4.16 -0.57,0.54 -0.95,1.26 -1.17,2.17 -0.21,0.9 -0.2,1.7 0.02,2.37 0.32,1.11 0.88,1.66 1.7,1.66zm2.76 -3.95c0.06,-0.68 0.06,-1.26 0.02,-1.76 -0.04,-0.49 -0.09,-0.9 -0.15,-1.21 -0.05,-0.31 -0.12,-0.56 -0.21,-0.76 -0.08,-0.2 -0.16,-0.34 -0.23,-0.43 -0.07,-0.08 -0.12,-0.12 -0.15,-0.12l-0.04 0c-0.12,0 -0.26,0.09 -0.43,0.27 -0.17,0.19 -0.29,0.43 -0.38,0.75 -0.17,0.59 -0.14,1.2 0.09,1.82 0.22,0.62 0.72,1.19 1.48,1.7 0,-0.09 0,-0.17 0,-0.26zm31.19 -3.41c0.23,-0.02 0.43,0.05 0.59,0.19 0.17,0.14 0.27,0.32 0.28,0.55 0.01,0.23 -0.05,0.42 -0.19,0.59 -3.59,4.22 -6.44,5.93 -8.53,5.14 -1.5,-0.57 -2.31,-2.36 -2.42,-5.39 -0.4,0.74 -1.02,1.97 -1.87,3.69 -0.48,1.05 -0.8,1.71 -0.97,2 -0.74,1.41 -1.53,2 -2.38,1.78 -1.16,-0.28 -1.72,-1.91 -1.7,-4.88 0,-0.57 0.02,-1.23 0.05,-2 -1.87,2.66 -3.78,5.86 -5.73,9.59 -0.34,0.65 -0.71,0.98 -1.11,0.98 -0.14,0 -0.27,-0.04 -0.4,-0.11 -0.13,-0.07 -0.23,-0.13 -0.3,-0.19 -0.07,-0.05 -0.14,-0.21 -0.21,-0.46 -0.07,-0.26 -0.08,-0.58 -0.04,-0.98 0.04,-0.4 0.13,-0.98 0.28,-1.74 0.14,-0.76 0.35,-1.68 0.63,-2.76 0.91,-3.62 2,-6.86 3.27,-9.72 0.08,-0.22 0.23,-0.38 0.44,-0.46 0.22,-0.09 0.43,-0.08 0.64,0.02 0.21,0.1 0.35,0.25 0.43,0.47 0.07,0.21 0.06,0.41 -0.03,0.61 -1.41,3.2 -2.57,6.75 -3.47,10.65 1.69,-3 3.45,-5.75 5.26,-8.27 0.39,-0.57 0.83,-0.77 1.31,-0.6 0.34,0.12 0.54,0.35 0.6,0.7 0.05,0.36 0.07,1.06 0.04,2.1 -0.03,0.88 -0.04,1.6 -0.04,2.17 0,1.5 0.15,2.56 0.46,3.18 0.17,-0.17 0.37,-0.45 0.6,-0.85 0.14,-0.28 0.45,-0.92 0.93,-1.91 1.16,-2.43 2,-4.02 2.5,-4.77 0.51,-0.75 1.04,-1.07 1.57,-0.96 0.6,0.14 0.9,0.77 0.9,1.87 -0.03,2.77 0.42,4.34 1.35,4.71 0.57,0.2 1.43,-0.06 2.59,-0.78 1.16,-0.73 2.53,-2.02 4.12,-3.89 0.14,-0.17 0.32,-0.26 0.55,-0.27z"/>
   </g>
  </g>
 </g>
</svg>
