<?xml version="1.0" encoding="UTF-8"?>
<!DOCTYPE svg PUBLIC "-//W3C//DTD SVG 1.1//EN" "http://www.w3.org/Graphics/SVG/1.1/DTD/svg11.dtd">
<!-- Creator: CorelDRAW 2020 (64-Bit) -->
<svg xmlns="http://www.w3.org/2000/svg" xml:space="preserve" width="642px" height="642px" version="1.1" style="shape-rendering:geometricPrecision; text-rendering:geometricPrecision; image-rendering:optimizeQuality; fill-rule:evenodd; clip-rule:evenodd"
viewBox="0 0 9834.48 9834.48"
 xmlns:xlink="http://www.w3.org/1999/xlink"
 xmlns:xodm="http://www.corel.com/coreldraw/odm/2003">
 <defs>
  <style type="text/css">
   <![CDATA[
    .str0 {stroke:#2B2B29;stroke-width:36.16;stroke-miterlimit:22.9256}
    .str1 {stroke:#283CBD;stroke-width:13.78;stroke-miterlimit:22.9256}
    .fil1 {fill:none}
    .fil3 {fill:#71BA3C}
    .fil0 {fill:white}
    .fil4 {fill:#283CBD;fill-rule:nonzero}
    .fil2 {fill:url(#id0)}
   ]]>
  </style>
  <linearGradient id="id0" gradientUnits="userSpaceOnUse" x1="18.08" y1="4917.24" x2="9816.39" y2="4917.24">
   <stop offset="0" style="stop-opacity:1; stop-color:#71BA3C"/>
   <stop offset="1" style="stop-opacity:1; stop-color:#283CBD"/>
  </linearGradient>
 </defs>
 <g id="Capa_x0020_1">
  <metadata id="CorelCorpID_0Corel-Layer"/>
  <g id="_2850526465008">
   <g>
    <circle class="fil0 str0" cx="4917.24" cy="4917.24" r="4899.16"/>
    <path class="fil1" d="M4917.24 18.08c2705.71,0 4899.15,2193.44 4899.15,4899.16 0,2705.71 -2193.44,4899.15 -4899.15,4899.15 -2705.72,0 -4899.16,-2193.44 -4899.16,-4899.15 0,-2705.72 2193.44,-4899.16 4899.16,-4899.16zm0 307.82c2535.74,0 4591.34,2055.62 4591.34,4591.34 0,2535.74 -2055.6,4591.34 -4591.34,4591.34 -2535.72,0 -4591.34,-2055.6 -4591.34,-4591.34 0,-2535.72 2055.62,-4591.34 4591.34,-4591.34z"/>
    <circle class="fil1" cx="4917.24" cy="4917.24" r="4591.33"/>
    <path class="fil2" d="M325.9 4917.24c0,-2535.72 2055.62,-4591.34 4591.34,-4591.34 2535.74,0 4591.34,2055.62 4591.34,4591.34 0,2535.74 -2055.6,4591.34 -4591.34,4591.34 -2535.72,0 -4591.34,-2055.6 -4591.34,-4591.34zm9490.49 0c0,-2705.72 -2193.44,-4899.16 -4899.15,-4899.16 -2705.72,0 -4899.16,2193.44 -4899.16,4899.16 0,2705.71 2193.44,4899.15 4899.16,4899.15 2705.71,0 4899.15,-2193.44 4899.15,-4899.15z"/>
   </g>
   <g>
    <path class="fil3" d="M7774.09 4690.9c-11.79,-46.36 -206.38,-376.55 -218.17,-429.15 -26.52,5.53 -144.46,80.99 -176.88,101.75l-179.85 109.36c23.58,40.85 168.04,220.82 209.32,275.51 61.92,85.13 150.36,191.72 206.38,274.09 -64.86,98.98 -138.57,173.05 -200.48,251.96l-224.06 236.03c-17.69,15.23 -23.58,16.62 -41.28,33.92 -14.74,14.54 -23.58,24.92 -38.32,37.38l-171.01 137.75c-94.33,71.3 -173.93,121.14 -277.13,182.74 -112.02,66.44 -191.62,101.05 -306.6,145.35 -56.02,21.47 -67.81,11.77 -67.81,90.69 79.6,-18.7 162.14,-34.61 235.85,-59.53 350.83,-117.68 672.19,-309.41 946.38,-553.07l79.6 -69.2c29.47,-21.47 53.07,-48.47 76.65,-74.07 38.33,-38.08 114.99,-123.21 153.3,-148.82l47.18 110.74c17.68,34.61 38.33,76.83 50.12,109.36l100.24 224.96c50.12,-11.77 300.71,-166.81 359.67,-181.34 0,-31.16 -23.58,-54 -41.26,-78.23l-341.99 -517.05c11.79,-38.08 88.44,-141.21 114.96,-179.29 209.33,-310.09 524.79,-605.65 837.29,-806.38 135.62,-87.92 173.96,-92.77 297.79,-152.3l0 -67.82c-306.63,71.3 -589.65,238.11 -810.77,402.84l-123.83 100.37c-17.68,15.23 -26.52,18 -41.26,33.93l-235.87 218.72c-26.52,28.37 -41.26,51.23 -70.75,78.91 -23.58,23.53 -123.81,152.98 -147.41,159.89z"/>
    <path class="fil4 str1" d="M630.5 5474.12l180.06 0 0 -1278.63 -180.06 0 0 1278.63zm1371.41 -943.97c-78.21,0 -181.89,12.73 -309.21,69.13 -58.19,-47.31 -140.05,-69.13 -241.89,-69.13 -96.41,0 -236.46,23.65 -374.69,70.93l0 873.04 174.61 0 0 -765.72c67.3,-16.36 138.24,-29.11 192.79,-29.11 149.15,0 207.36,98.23 207.36,314.67l0 480.16 174.6 0 0 -487.45c0,-109.12 -14.54,-196.42 -43.65,-265.54 80.03,-30.92 152.78,-41.84 212.81,-41.84 149.15,0 207.33,98.23 207.33,314.67l0 480.16 174.63 0 0 -487.45c0,-316.47 -120.05,-456.52 -374.69,-456.52zm1034.91 0c-130.95,0 -252.81,14.55 -401.95,41.84l0 1284.11 174.6 0 0 -398.34c74.58,25.46 156.43,41.84 243.74,41.84 274.63,0 383.76,-172.79 383.76,-502 0,-316.48 -114.59,-467.45 -400.15,-467.45zm-12.73 829.4c-65.47,0 -140.04,-16.38 -214.62,-47.3l0 -629.32c69.11,-9.08 143.69,-16.37 218.28,-16.37 169.14,0 229.16,109.13 229.16,336.5 0,218.25 -38.19,356.49 -232.82,356.49zm996.75 -829.4c-98.23,0 -220.09,23.65 -372.88,54.57l0 889.4 174.62 0 0 -776.64c70.92,-12.73 149.14,-23.63 227.35,-23.63 32.73,0 65.48,1.81 103.67,9.08l0 -134.59c-30.92,-12.73 -85.48,-18.19 -132.76,-18.19zm278.27 27.28l0 916.69 174.6 0 0 -916.69 -174.6 0zm1356.85 -27.28c-78.21,0 -181.87,12.73 -309.21,69.13 -58.19,-47.31 -140.05,-69.13 -241.89,-69.13 -96.4,0 -236.46,23.65 -374.68,70.93l0 873.04 174.6 0 0 -765.72c67.3,-16.36 138.24,-29.11 192.79,-29.11 149.15,0 207.36,98.23 207.36,314.67l0 480.16 174.6 0 0 -487.45c0,-109.12 -14.54,-196.42 -43.65,-265.54 80.03,-30.92 152.8,-41.84 212.81,-41.84 149.15,0 207.35,98.23 207.35,314.67l0 480.16 174.61 0 0 -487.45c0,-316.47 -120.05,-456.52 -374.69,-456.52zm1014.92 969.45c285.55,0 429.24,-165.52 429.24,-483.81 0,-318.31 -143.69,-485.64 -429.24,-485.64 -283.74,0 -429.25,167.33 -429.25,485.64 0,318.29 145.51,483.81 429.25,483.81zm0 -140.05c-167.34,0 -251.01,-112.78 -251.01,-343.76 0,-231.01 83.67,-343.77 251.01,-343.77 169.16,0 251,112.76 251,343.77 0,230.98 -81.84,343.76 -251,343.76z"/>
    <path class="fil4 str1" d="M7262.84 5933.78c12.08,-3.67 18.92,-1.05 20.49,7.88 1.05,9.46 -3.42,16.55 -13.4,21.27 -5.24,2.64 -11.28,3.94 -18.12,3.94 -11.03,-1.05 -13.65,-6.82 -7.88,-17.32 4.74,-7.89 11.03,-13.13 18.91,-15.77zm309.63 -145.74c4.19,-1.05 8.01,-0.4 11.41,1.97 3.42,2.37 5.66,5.64 6.71,9.83 1.05,4.22 0.25,7.89 -2.37,11.03 -17.33,26.8 -32.44,49.39 -45.3,67.76 -12.87,18.39 -27.45,37.95 -43.72,58.69 -16.29,20.76 -31.12,37.31 -44.52,49.64 -13.4,12.35 -27.45,22.59 -42.15,30.74 -14.7,8.14 -28.63,12.21 -41.75,12.21 -4.74,0 -9.46,-0.53 -14.18,-1.58 -18.91,-4.21 -33.36,-15.24 -43.34,-33.09 -10.51,-23.63 -15.1,-49.51 -13.78,-77.61 1.3,-28.1 6.96,-55.8 16.92,-83.1 10.51,-28.9 23.78,-51.23 39.8,-66.98 16.02,-15.75 31.12,-21.27 45.3,-16.55 3.14,1.05 6.04,2.5 8.66,4.34 2.64,1.83 5.79,5.52 9.46,11.03 3.67,5.52 5.51,12.73 5.51,21.67 0,8.93 -1.57,20.48 -4.72,34.66 -1.05,4.19 -3.29,7.36 -6.71,9.46 -3.4,2.09 -7.21,2.62 -11.41,1.57 -4.21,-1.05 -7.36,-3.42 -9.45,-7.09 -2.1,-3.67 -2.64,-7.36 -1.58,-11.03 5.25,-19.96 5.52,-32.04 0.78,-36.24 -2.1,0 -5.39,1.58 -9.84,4.72 -4.46,3.15 -10.37,10.11 -17.73,20.89 -7.35,10.76 -13.93,24.28 -19.7,40.58 -9.45,24.68 -14.57,49.76 -15.37,75.22 -0.77,25.48 2.77,45.31 10.65,59.49 5.25,9.98 12.86,16.02 22.84,18.12 8.94,2.1 19.04,0.79 30.34,-3.94 11.29,-4.72 23.37,-13.26 36.24,-25.61 12.86,-12.33 24.56,-24.41 35.06,-36.23 10.51,-11.83 22.72,-27.58 36.64,-47.27 13.9,-19.69 24.55,-34.94 31.9,-45.7 7.36,-10.77 17.34,-25.87 29.94,-45.31 2.1,-3.15 5.24,-5.25 9.46,-6.29zm248.96 6.29c4.19,-0.53 8.01,0.54 11.43,3.16 3.4,2.62 5.37,6.04 5.89,10.24 0.54,4.21 -0.52,7.88 -3.15,11.03 -21.53,27.84 -47.26,49.63 -77.21,65.38 -29.92,15.77 -58.02,20.76 -84.3,14.98 -7.34,17.86 -17.59,31.91 -30.72,42.15 -13.13,10.25 -26.78,15.37 -40.98,15.37l-0.77 0c-14.18,-0.53 -26.66,-5.39 -37.43,-14.58 -10.76,-9.18 -18.25,-21.93 -22.44,-38.21 -6.84,-25.75 -5.66,-50.3 3.54,-73.66 9.19,-23.38 22.44,-40.58 39.78,-51.61 3.67,-2.62 7.89,-3.15 12.61,-1.57 4.71,-11.56 11.42,-20.49 20.08,-26.78 8.67,-6.32 17.73,-8.68 27.18,-7.11 5.26,1.07 10.11,3.29 14.58,6.71 4.46,3.42 8.93,8.79 13.4,16.15 4.46,7.35 7.74,18.64 9.85,33.86 2.1,15.25 2.62,33.37 1.57,54.38 -0.52,5.24 -1.32,10.5 -2.36,15.75 19.96,4.21 42.15,-0.78 66.58,-14.97 24.41,-14.18 45.29,-32.57 62.63,-55.16 2.62,-3.14 6.04,-4.97 10.24,-5.51zm-219.04 131.58c7.36,0 15.12,-3.41 23.26,-10.25 8.14,-6.82 14.83,-16.02 20.09,-27.57 -34.14,-18.9 -52.01,-44.65 -53.58,-77.22 -10.51,9.99 -17.72,23.38 -21.66,40.2 -3.94,16.8 -3.82,31.5 0.39,44.1 5.77,20.49 16.28,30.74 31.5,30.74zm51.23 -73.27c1.05,-12.6 1.18,-23.5 0.38,-32.71 -0.78,-9.18 -1.7,-16.67 -2.75,-22.44 -1.05,-5.78 -2.37,-10.5 -3.94,-14.19 -1.57,-3.67 -3.02,-6.29 -4.34,-7.87 -1.3,-1.57 -2.22,-2.37 -2.75,-2.37l-0.79 0c-2.1,0 -4.72,1.7 -7.87,5.12 -3.16,3.42 -5.51,8.01 -7.1,13.8 -3.15,11.03 -2.63,22.31 1.59,33.87 4.19,11.55 13.38,22.06 27.57,31.51 0,-1.57 0,-3.14 0,-4.72zm579.06 -63.43c4.19,-0.25 7.88,0.92 11.03,3.55 3.14,2.64 4.86,6.03 5.11,10.25 0.28,4.19 -0.92,7.86 -3.54,11.03 -66.71,78.26 -119.49,110.03 -158.35,95.33 -27.84,-10.51 -42.82,-43.87 -44.91,-100.07 -7.36,13.67 -18.92,36.51 -34.67,68.55 -8.93,19.44 -14.97,31.77 -18.12,37.03 -13.65,26.26 -28.37,37.29 -44.12,33.1 -21.53,-5.27 -32.04,-35.46 -31.52,-90.62 0,-10.5 0.28,-22.83 0.8,-37.03 -34.66,49.38 -70.12,108.73 -106.36,178.06 -6.31,12.08 -13.13,18.12 -20.49,18.12 -2.62,0 -5.12,-0.65 -7.49,-1.97 -2.36,-1.31 -4.19,-2.5 -5.51,-3.55 -1.32,-1.05 -2.62,-3.94 -3.94,-8.66 -1.3,-4.72 -1.58,-10.78 -0.78,-18.12 0.78,-7.36 2.5,-18.12 5.12,-32.31 2.62,-14.18 6.56,-31.25 11.81,-51.21 16.81,-67.23 37.03,-127.36 60.66,-180.41 1.58,-4.19 4.34,-7.09 8.28,-8.66 3.95,-1.59 7.89,-1.45 11.81,0.38 3.94,1.84 6.57,4.74 7.89,8.68 1.32,3.94 1.17,7.74 -0.4,11.41 -26.26,59.36 -47.79,125.27 -64.59,197.77 31.5,-55.68 64.06,-106.89 97.68,-153.65 7.36,-10.51 15.5,-14.18 24.43,-11.03 6.29,2.12 9.98,6.44 11.03,13 1.05,6.56 1.3,19.57 0.78,39 -0.53,16.28 -0.78,29.68 -0.78,40.18 0,27.85 2.89,47.54 8.66,59.1 3.15,-3.15 6.84,-8.41 11.03,-15.77 2.62,-5.24 8.41,-17.07 17.34,-35.44 21.54,-45.17 37.02,-74.72 46.47,-88.64 9.46,-13.93 19.19,-19.82 29.15,-17.72 11.03,2.62 16.55,14.17 16.55,34.66 -0.53,51.46 7.88,80.63 25.22,87.45 10.51,3.67 26.51,-1.18 48.05,-14.58 21.53,-13.4 47.01,-37.41 76.43,-72.09 2.62,-3.15 6.04,-4.85 10.24,-5.12z"/>
   </g>
  </g>
 </g>
</svg>
